<?xml version="1.0" standalone="no"?>
<!DOCTYPE svg PUBLIC "-//W3C//DTD SVG 1.0//EN" "http://www.w3.org/TR/2001/REC-SVG-20010904/DTD/svg10.dtd">
<svg xmlns="http://www.w3.org/2000/svg" xmlns:xlink="http://www.w3.org/1999/xlink" id="body_1" width="71" height="24">

<g transform="matrix(0.68571436 0 0 0.68571436 0.5285706 -0)">
    <path d="M0 0L102 0L102 35L0 35z" stroke="none" fill="#2F112D" fill-rule="nonzero" />
    <path d="M21.752 23L21.752 11.0952L31.2759 11.0952L31.2759 13.4762L33.6568 13.4762L33.6568 15.8571L31.2759 15.8571L31.2759 18.2381L26.514 18.2381L26.514 23L21.752 23zM26.514 15.8571L28.8949 15.8571L28.8949 13.4762L26.514 13.4762L26.514 15.8571zM40.4598 23L40.4598 20.619L38.0789 20.619L38.0789 13.4762L40.4598 13.4762L40.4598 11.0952L47.6027 11.0952L47.6027 13.4762L49.9836 13.4762L49.9836 20.619L47.6027 20.619L47.6027 23L40.4598 23zM42.8408 20.619L45.2217 20.619L45.2217 13.4762L42.8408 13.4762L42.8408 20.619zM54.4057 23L54.4057 20.619L61.5485 20.619L61.5485 18.2381L56.7866 18.2381L56.7866 15.8571L54.4057 15.8571L54.4057 13.4762L56.7866 13.4762L56.7866 11.0952L66.3105 11.0952L66.3105 13.4762L59.1676 13.4762L59.1676 15.8571L63.9295 15.8571L63.9295 18.2381L66.3105 18.2381L66.3105 20.619L63.9295 20.619L63.9295 23L54.4057 23zM73.1135 23L73.1135 13.4762L70.7325 13.4762L70.7325 11.0952L80.2563 11.0952L80.2563 13.4762L77.8754 13.4762L77.8754 23L73.1135 23z" stroke="none" fill="#150714" fill-rule="nonzero" />
</g>
</svg>